<mxfile host="app.diagrams.net" modified="2023-09-27T20:38:41.130Z" agent="Mozilla/5.0 (X11; Linux x86_64; rv:109.0) Gecko/20100101 Firefox/117.0" etag="Qoo2iV2vG4KBTgLUpcdL" version="21.8.2" type="device">
  <diagram name="Page-1" id="lD_Rw_9kjYGrWwU5uTNK">
    <mxGraphModel dx="1430" dy="746" grid="1" gridSize="10" guides="1" tooltips="1" connect="1" arrows="1" fold="1" page="1" pageScale="1" pageWidth="850" pageHeight="1100" math="0" shadow="0">
      <root>
        <mxCell id="0" />
        <mxCell id="1" parent="0" />
        <mxCell id="hXrwtRvcpEDOgqO_QYrS-4" value="" style="whiteSpace=wrap;html=1;" vertex="1" parent="1">
          <mxGeometry x="377.5" y="320" width="112.5" height="100" as="geometry" />
        </mxCell>
        <mxCell id="hXrwtRvcpEDOgqO_QYrS-15" style="rounded=0;orthogonalLoop=1;jettySize=auto;html=1;exitX=0.25;exitY=1;exitDx=0;exitDy=0;entryX=1;entryY=0;entryDx=0;entryDy=0;strokeWidth=2;" edge="1" parent="1" source="hXrwtRvcpEDOgqO_QYrS-1" target="hXrwtRvcpEDOgqO_QYrS-4">
          <mxGeometry relative="1" as="geometry" />
        </mxCell>
        <mxCell id="hXrwtRvcpEDOgqO_QYrS-1" value="" style="shape=image;imageAspect=0;aspect=fixed;verticalLabelPosition=bottom;verticalAlign=top;image=https://object-storage-ca-ymq-1.vexxhost.net/swift/v1/6e4619c416ff4bd19e1c087f27a43eea/www-images-prod/openstack-logo/OpenStack-Logo-Vertical.png;" vertex="1" parent="1">
          <mxGeometry x="570" y="90" width="165.73" height="80" as="geometry" />
        </mxCell>
        <mxCell id="hXrwtRvcpEDOgqO_QYrS-2" value="" style="html=1;verticalLabelPosition=bottom;align=center;labelBackgroundColor=#ffffff;verticalAlign=top;strokeWidth=2;strokeColor=#0080F0;shadow=0;dashed=0;shape=mxgraph.ios7.icons.tools;pointerEvents=1" vertex="1" parent="1">
          <mxGeometry x="410" y="370" width="50" height="40" as="geometry" />
        </mxCell>
        <mxCell id="hXrwtRvcpEDOgqO_QYrS-3" value="testbedimage" style="text;strokeColor=none;align=center;fillColor=none;html=1;verticalAlign=middle;whiteSpace=wrap;rounded=0;fontStyle=1" vertex="1" parent="1">
          <mxGeometry x="405" y="330" width="60" height="30" as="geometry" />
        </mxCell>
        <mxCell id="hXrwtRvcpEDOgqO_QYrS-13" value="" style="sketch=0;outlineConnect=0;fontColor=#232F3E;gradientColor=none;fillColor=#232F3D;strokeColor=none;dashed=0;verticalLabelPosition=bottom;verticalAlign=top;align=center;html=1;fontSize=12;fontStyle=0;aspect=fixed;pointerEvents=1;shape=mxgraph.aws4.documents;" vertex="1" parent="1">
          <mxGeometry x="625" y="240" width="40" height="48.76" as="geometry" />
        </mxCell>
        <mxCell id="hXrwtRvcpEDOgqO_QYrS-14" value="Get Images Metadata" style="text;strokeColor=none;align=center;fillColor=none;html=1;verticalAlign=middle;whiteSpace=wrap;rounded=0;" vertex="1" parent="1">
          <mxGeometry x="580" y="210" width="125" height="30" as="geometry" />
        </mxCell>
      </root>
    </mxGraphModel>
  </diagram>
</mxfile>
